<svg xmlns="http://www.w3.org/2000/svg" xmlns:xlink="http://www.w3.org/1999/xlink" viewBox="0 0 1200 720"><defs><style>.cls-1{fill:#fff;}.cls-2{fill:#4886c6;}.cls-3{opacity:0.1;}.cls-4{isolation:isolate;}.cls-5{fill:#efeff0;}.cls-6{fill:url(#linear-gradient);}.cls-7{fill:#e0e1e2;}.cls-8{fill:url(#linear-gradient-2);}.cls-9{fill:url(#linear-gradient-3);}.cls-10{fill:#17134b;}.cls-11{fill:#812a19;}.cls-12{fill:#f89b4c;}.cls-13{fill:#fbc3b1;}.cls-14{fill:#f7933d;}.cls-15{fill:#3a3a3a;}.cls-16{fill:#004a73;}.cls-17{fill:#03263a;}.cls-18{fill:#005888;}.cls-19{fill:#d164a6;}.cls-20{fill:#6b461b;}.cls-21{fill:#c0529f;}.cls-22{fill:#8a221b;}.cls-23{fill:#4e4019;}.cls-24{fill:#4d67b0;}.cls-25{fill:#3d57a6;}.cls-26{fill:#553631;}.cls-27{fill:#253c80;}.cls-28{fill:#24356d;}.cls-29{fill:#434342;}.cls-30{fill:#4470b7;}.cls-31{fill:#2d2d2d;}.cls-32{fill:#683215;}.cls-33{fill:#52260f;}.cls-34{fill:#3a2511;}.cls-35{fill:#212120;}.cls-36{fill:#2b2b2b;}.cls-37{fill:#f2f2f3;}.cls-38{fill:#383838;}.cls-39{fill:#454545;}.cls-40{fill:#f0efef;}.cls-41{fill:#703618;}.cls-42{fill:#7c3b1a;}.cls-43{fill:#472b14;}.cls-44{fill:#eaeaea;}.cls-45{fill:#f4f4f5;}.cls-46{fill:#653b16;}.cls-47{fill:#e3e3e3;}.cls-48{fill:#d58928;}.cls-49{fill:#78491d;}.cls-50{fill:#a95d26;}.cls-51{fill:#262626;}.cls-52{fill:#4f3116;}.cls-53{fill:#5e3a19;}.cls-54{fill:#f1bbaa;}.cls-55{fill:#6d421a;}.cls-56{fill:#3e1f11;}.cls-57{fill:#855221;}.cls-58{fill:#1d5097;}.cls-59{fill:#225aa9;}.cls-60{fill:#f2f3f3;}.cls-61{fill:#242423;}.cls-62{fill:#464646;}.cls-63{fill:#5f3d37;}</style><linearGradient id="linear-gradient" x1="790.11" y1="334.6" x2="926.44" y2="334.6" gradientUnits="userSpaceOnUse"><stop offset="0" stop-color="#efeff0"/><stop offset="1" stop-color="#e0e1e2"/></linearGradient><linearGradient id="linear-gradient-2" x1="691.54" y1="383.36" x2="752.6" y2="383.36" xlink:href="#linear-gradient"/><linearGradient id="linear-gradient-3" x1="824.42" y1="483.52" x2="893.01" y2="483.52" xlink:href="#linear-gradient"/></defs><g id="Calque_2" data-name="Calque 2"><g id="Objects"><rect class="cls-1" width="1200" height="720"/><path class="cls-2" d="M0,578.66s33.76,70.23,119.09,66.66S240.53,517.86,383.43,528.09s172.72-48,180.78-122.72c5.9-54.64,40.81-165,151.47-165.23S901.05,156,986.73,192.84c66.61,28.67,151.89-.49,213.27-65.92V720H0Z"/><path class="cls-3" d="M903.17,294c36.76,21.23,33.28,42.61,10.31,56-21,12.22-47.94,12.7-70.15,13.34-21.65.64-36.61,4.5-48.79,11.9l-5,2.9-37-21.39,6.91-4.34c13.28-8.68,32.41-14.31,59.87-15.76,19.44-1,35.53-1.93,44.94-7.39,9.68-5.63,9.63-13-3.74-21.39-9.19-5.31-23.64-9.81-35.86-11.09l20.69-23A174,174,0,0,1,903.17,294Z"/><path class="cls-3" d="M757.34,374.92c15,8.68,14.27,20.42-.11,29.11-14.39,8.36-35.2,8.84-50.24.15-14.76-8.52-14-20.58.38-28.94C722,366.72,742.86,366.56,757.34,374.92Z"/><g class="cls-4"><path class="cls-5" d="M856.15,277.79l-.08,27.43c-9.19-5.3-23.64-9.81-35.86-11.09l.08-27.43C832.51,268,847,272.48,856.15,277.79Z"/><path class="cls-5" d="M866.72,290.41l-.08,27.43c0-3.84-3.32-8.08-10.57-12.62l.08-27.43C863.4,282.32,866.73,286.57,866.72,290.41Z"/><path class="cls-6" d="M926.44,296.61,926.37,324c0,9-6.52,17-17.32,23.31-21,12.22-47.94,12.7-70.15,13.34-21.65.64-36.62,4.51-48.79,11.9l.08-27.43c12.17-7.4,27.14-11.26,48.79-11.9,22.2-.64,49.12-1.12,70.15-13.34C919.93,313.64,926.42,305.59,926.44,296.61Z"/><polygon class="cls-5" points="785.21 348.06 785.13 375.49 748.09 354.1 748.16 326.67 785.21 348.06"/><polygon class="cls-5" points="790.19 345.16 790.11 372.59 785.13 375.49 785.21 348.06 790.19 345.16"/><path class="cls-1" d="M898.82,264c36.76,21.23,33.28,42.61,10.31,56-21,12.22-48,12.7-70.15,13.34-21.65.64-36.62,4.5-48.79,11.9l-5,2.9-37.05-21.39,6.92-4.34c13.28-8.68,32.41-14.31,59.87-15.76,19.43-1,35.52-1.93,44.93-7.39,9.69-5.63,9.64-13-3.73-21.39-9.19-5.31-23.64-9.81-35.86-11.09l20.68-23A174.26,174.26,0,0,1,898.82,264Z"/></g><g class="cls-4"><path class="cls-7" d="M763.69,358.71l-.08,27.43c0,5.17-3.8,10.36-11.09,14.75l.08-27.43C759.88,369.06,763.68,363.88,763.69,358.71Z"/><path class="cls-8" d="M691.54,386.79l.07-27.43c0,5,3.5,10.07,10.75,14.26,15,8.68,35.85,8.2,50.24-.16l-.08,27.43c-14.39,8.37-35.2,8.85-50.24.16C695,396.87,691.52,391.83,691.54,386.79Z"/><path class="cls-1" d="M752.71,344.36c15,8.68,14.27,20.42-.11,29.1-14.39,8.36-35.2,8.84-50.24.16-14.77-8.52-14-20.58.38-28.94C717.41,336.16,738.23,336,752.71,344.36Z"/></g><polygon class="cls-3" points="932.64 475.28 896.14 454.2 1032.89 366.2 1083.8 395.6 932.64 475.28"/><polygon class="cls-1" points="926.83 441.1 891.15 420.5 1024.82 334.48 1074.59 363.22 926.83 441.1"/><g class="cls-4"><polygon class="cls-5" points="926.83 441.1 926.75 471.94 891.06 451.33 891.15 420.5 926.83 441.1"/><polygon class="cls-7" points="1074.59 363.22 1074.5 394.05 926.75 471.94 926.83 441.1 1074.59 363.22"/></g><g class="cls-4"><path class="cls-3" d="M897.61,474.19c16.59,9.58,15.73,22.77-.44,32.53-16.17,9.4-39.25,10.12-56.15.36s-16-23.31.12-32.71C857.62,464.79,881,464.61,897.61,474.19Z"/><path class="cls-7" d="M905.52,455.73l-.09,30.83c0,5.82-4.28,11.67-12.51,16.64l.09-30.83C901.24,467.4,905.5,461.55,905.52,455.73Z"/><path class="cls-9" d="M824.42,487.29l.09-30.83c0,5.71,4,11.45,12.34,16.27,16.91,9.76,40,9,56.16-.36l-.09,30.83c-16.17,9.4-39.25,10.12-56.15.36C828.42,498.74,824.41,493,824.42,487.29Z"/><path class="cls-1" d="M893.45,439.84c16.59,9.58,15.72,22.77-.44,32.53-16.17,9.4-39.25,10.12-56.16.36S820.8,449.42,837,440C853.46,430.44,876.86,430.26,893.45,439.84Z"/></g><ellipse class="cls-3" cx="1055.24" cy="307.7" rx="13.4" ry="4.78"/><path class="cls-10" d="M1048.06,305.92c2.15.24,2.32-1.19,4-.89s2.61.12,3.09-.6a5.42,5.42,0,0,0-.22-2.69c-.29-1.37-.7-2.88-.79-3.73-.18-1.6.3-5.05.24-6.72a20.47,20.47,0,0,0-1.13-4.58l.41-8.2s1.07,7.43,1.37,9.12,2.92,14.37,3.33,16.21a2,2,0,0,1,.06.47c0,1.64-1.6,3-2.85,4.77-1.37,1.9.29,2.55.29,2.55,3,.54,3.75-1.54,4.2-2.32s2-1.37,2.94-2.2.36-2,0-3.8c0-.09,0-.18,0-.28a71.12,71.12,0,0,1-.48-10.37c.17-2.14-1.67-6-1.67-6s.36-.53.69-7.61a49.14,49.14,0,0,0-1.43-13.48c-9.07,3-12.54-1.21-12.54-1.21s-.28-.12-1.23,4.24,2.85,18.6,2.85,18.6c.48,2.79,1.73,14.51,1.73,14.51a.76.76,0,0,1-.09.28c-.7,1.32-4.94,2.49-5.44,2.93S1045.92,305.69,1048.06,305.92Z"/><path class="cls-11" d="M1048.06,305.92c2.15.24,2.32-1.19,4-.89s2.61.12,3.09-.6a5.42,5.42,0,0,0-.22-2.69,8.45,8.45,0,0,1-4.15.3c-.7,1.32-4.94,2.49-5.44,2.93S1045.92,305.69,1048.06,305.92Z"/><path class="cls-11" d="M1055.85,311.63c3,.54,3.75-1.54,4.2-2.32s2-1.37,2.94-2.2.36-2,0-3.8c0-.09,0-.18,0-.28a3.2,3.2,0,0,1-2.68,1.7,3.57,3.57,0,0,1-1.85-.42c0,1.64-1.6,3-2.85,4.77C1054.19,311,1055.85,311.63,1055.85,311.63Z"/><path class="cls-12" d="M1041.57,256.67a10.37,10.37,0,0,0,3.29,1.28c1.43-2.82,4.08-8.21,4.52-10.13.6-2.66.28-4.44-2.42-4.8a8.19,8.19,0,0,0-2.19,3.13C1044.17,247.71,1042.31,254.08,1041.57,256.67Z"/><path class="cls-13" d="M1029.09,268.65c.16.36,2.25,2.25,4.29,1.12s9.2-6.94,10.57-10.06c0,0,.37-.69.91-1.76a10.37,10.37,0,0,1-3.29-1.28l-.32,1.1a13.53,13.53,0,0,0-2.91,2.61c-1,1.33-2.15,3.93-3.42,4.24s-3.73-.62-4,0,1.74,1.27,1.74,1.27S1028.92,268.28,1029.09,268.65Z"/><path class="cls-14" d="M1054.69,241.22c-1.94-.64-7.37,1.25-7.73,1.8a12.64,12.64,0,0,0-1,6.74c.37,3.39,1.23,6,1.13,9.14s-.42,6.23-.42,6.23,1.74,3.12,7.19,2.8c4.54-.27,6.22-2.31,6.22-2.31s-.18-8.66.71-13.13,1.7-5.69.29-7S1057.76,242.22,1054.69,241.22Z"/><path class="cls-12" d="M1057.34,251.41c.45,2.42,3.24,6.87,3.56,8.18a15.36,15.36,0,0,1,4.74-.77c-.27-4.77-3.29-12.59-4.08-12.67C1060,246,1056.87,248.89,1057.34,251.41Z"/><path class="cls-13" d="M1057.81,269.68a2.63,2.63,0,0,0,2.31,2s5.71-7.89,5.54-12.62a2.64,2.64,0,0,0,0-.28,15.36,15.36,0,0,0-4.74.77l0,.15Z"/><path class="cls-15" d="M1057,231.71c-.54-1.11-2.78-1.09-4-.71a7.11,7.11,0,0,1-3.4.29c-.88-.19-1.73,1-1.16,2.21s1.24,1.9,2.34,1.63,1.87,4.88,3.35,4.88a3.37,3.37,0,0,0,3.63-3.51A11.59,11.59,0,0,0,1057,231.71Z"/><path class="cls-13" d="M1052.93,233.15c-2.2,0-3.23.64-3.46,2.3s-.13,6.38,1.35,7.54c0,0,4.09.54,4.81-3.32s.44-6.34-2.92-6.58Z"/><path class="cls-15" d="M1055.24,238s-.57.06-.66-1.09-.58-1.74-2.09-1.53-2.54.1-3.29-.66-.2-2.29,2.1-2.39,4.57.27,5.11,2.32.53,2.92-.21,3.35S1055.24,238,1055.24,238Z"/><path class="cls-13" d="M1055.74,239l.58,2.9a3,3,0,0,1-3,2.52s-1.41-.2-1.41-1.19l-.42-2.75Z"/><path class="cls-13" d="M1055.24,238s1.09-1.65,1.75-.89-.7,2.07-1.66,2Z"/><ellipse class="cls-3" cx="1056.1" cy="524" rx="13.4" ry="4.78"/><path class="cls-16" d="M1066.44,516.57a7.08,7.08,0,0,1-3.51,2.29h0c-.78-2.64-2.21-3.6-3.52-6.16a9.48,9.48,0,0,1-.48-5.85c0,.07-.45.59-5.94-7.46-5.78-8.45-4.1-15.45-4.1-15.45l14,2.9s1.09,15.89,1.66,17.82S1064.94,516.09,1066.44,516.57Z"/><path class="cls-17" d="M1069.67,519.81c-1.4.33-2.1,3.08-4.73,3.37s-1.23-1.69-2-4.32a7.08,7.08,0,0,0,3.51-2.29h.08c1.57.17,5.51-3.06,7-1.24S1071.07,519.47,1069.67,519.81Z"/><path class="cls-18" d="M1062.86,486.83s-4.18,16.34-4.94,19.2-7.6,13.27-10.32,16.18l-3.86-1.94s2.91-8,4.8-9.87,2.88-1.89,3.49-3.45-1.58-14.24,0-18l.92-2.27Z"/><path class="cls-17" d="M1050.37,528.46c-1.94-.75-8.73-3.07-8.52-5.33a3.24,3.24,0,0,1,1.89-2.86l3.86,1.94s2.31,3.34,4.43,4.58S1052.31,529.22,1050.37,528.46Z"/><path class="cls-19" d="M1051.75,465.9c-.67,1.31-3.59,8.58-4.17,10s-1.12,11.31-1.08,12.3a1.13,1.13,0,0,0,0,.18,6.8,6.8,0,0,0-3.17.49s0-13,.32-14.54,3.67-10.26,4.25-11.88,1.86-1.61,3-1.12C1052.51,462,1052.43,464.6,1051.75,465.9Z"/><path class="cls-13" d="M1047.36,491.89c-.27.72-2.11,2.43-3.42,1.12s-.58-4.17-.58-4.17a6.8,6.8,0,0,1,3.17-.49.26.26,0,0,0,0,.08c.29.85,1.75,1.47,1.83,2.16S1047.36,491.89,1047.36,491.89Z"/><path class="cls-13" d="M1046.56,488.43a.26.26,0,0,1,0-.08C1048.06,488.58,1046.56,488.43,1046.56,488.43Z"/><path class="cls-13" d="M1059.41,449.06c2.28.13,3.45,0,3.41,3.9,0,2.1-.4,5.91-1.38,6.1s-3.8.81-4.74-.41-.87-5.79-.42-7.29S1059.41,449.06,1059.41,449.06Z"/><path class="cls-13" d="M1054.69,456.94l-.54,4a6.37,6.37,0,0,0,5.26.31v-4.32Z"/><path class="cls-20" d="M1055.43,458.17c1.37.4,4.11-1.14,5.07-4.42s2.3-2.5,2.51-3.06.56-2.4-.9-2.46a6.65,6.65,0,0,1-2.89-.4,4.05,4.05,0,0,0-3.26-.71c-1.24.46-3,1.87-2.79,3.6a2.38,2.38,0,0,0-.77,2.25c.27,1.45,1.23,2,1.49,3S1054,457.74,1055.43,458.17Z"/><path class="cls-13" d="M1059.7,456.19s-1.92-1.28-1.16-2.68,2,1.49,2,1.49Z"/><path class="cls-21" d="M1056.48,460c3.23.45,8.32,3.74,8.48,4.69s-.16,12.95-.83,15.69-1.27,6.42-1.27,6.42-9.57,2.62-14-2.9c0,0,1-5.87.56-8.21s-2.79-12.45-.56-14.68S1056.48,460,1056.48,460Z"/><path class="cls-19" d="M1076.18,493.08c-2.07.72-1.12-.95-1.12-1.66s-1.31-2.11-1.35-3.38c0,0-7.31-5.49-8.7-7.87a64.92,64.92,0,0,1-4.46-12,3.6,3.6,0,0,1,1.75-3.73c1.91-.71,2.67-.69,3.7,2.42s1.39,8.51,3.1,11c1.49,2.18,5.2,5.62,6.61,7.49a5.08,5.08,0,0,1,.47.74C1076.89,487.68,1078.25,492.37,1076.18,493.08Z"/><path class="cls-13" d="M1076.18,493.08c-2.07.72-1.12-.95-1.12-1.66s-1.31-2.11-1.35-3.38a2.29,2.29,0,0,0,2-2.65,5.08,5.08,0,0,1,.47.74C1076.89,487.68,1078.25,492.37,1076.18,493.08Z"/><ellipse class="cls-3" cx="613.4" cy="469.79" rx="13.4" ry="4.78"/><path class="cls-22" d="M622.56,448.4c-.2,2.17-2.1,14.71-1.29,16.47a2.92,2.92,0,0,0,.38.56,9.28,9.28,0,0,1-4.76-.13c.06-.2.12-.42.18-.63.48-1.76-1.35-8.88-1.76-11.52a5.32,5.32,0,0,1,1.46-4.41c-.88-2.79.58-11.59.64-11.92-.13.35-4,11.61-4.54,13.27A125.38,125.38,0,0,1,606,463.92a2.44,2.44,0,0,0-.41,2.21,3.94,3.94,0,0,1-3.94-2.63l.22-.32c1.35-2,2-7,2.3-9.7s3.12-5.62,3.12-5.62.47-8.27,1.05-12.75,1.85-5.19,1.85-5.19l13.26-2.3C625.33,431.85,622.77,446.23,622.56,448.4Z"/><path class="cls-23" d="M608.15,474c-3.7,1-4.3-3.8-5.21-4.95s-1.8-1.29-2.27-2.31-.17-1.49,1-3.2a3.94,3.94,0,0,0,3.94,2.63,14.66,14.66,0,0,0,1.16,2.07C607,468.87,611.85,472.94,608.15,474Z"/><path class="cls-23" d="M627.58,469.28c-2.44,1.69-4.88.14-6.1-.47s-1.63.2-3.58-.34c-1.71-.48-1.42-1.69-1-3.17a9.28,9.28,0,0,0,4.76.13C623.14,467.14,627.58,469.28,627.58,469.28Z"/><path class="cls-24" d="M628.62,419.29a5.72,5.72,0,0,0-2.8,2.88,10.15,10.15,0,0,1-2-1.67c-1.08-1.45-1.25-9-1.53-11.33s-.06-5.05,1.53-4.76c1.92.35,2.67,4.54,2.67,6s.22,6.44,1.38,7.89C628.07,418.57,628.33,418.92,628.62,419.29Z"/><path class="cls-13" d="M639.73,427.42c-.14.65-3.31,2.67-4.54,1.3a23.54,23.54,0,0,0-3.43-2.88s-3.54-2-5.94-3.67a5.72,5.72,0,0,1,2.8-2.88c1.2,1.53,2.91,3.53,5,3.88,2.6.43,4.6-.29,4.82.5s-2.39,1.16-2.39,1.16S639.88,426.77,639.73,427.42Z"/><path class="cls-25" d="M616.3,402.26c2-.41,7,.94,8.17,2.09s1.19,7.78.26,10.38-.15,11.36-.85,12.44-7.26,5.72-13.67,2.75a3.73,3.73,0,0,1-1.91-4.44c.8-3.23,1.06-17.8,1.88-19.18A11,11,0,0,1,616.3,402.26Z"/><path class="cls-24" d="M613.27,411.18c-.87,1.45-5.3,7.39-5.12,9a12.79,12.79,0,0,0,1.29,3.13,6.27,6.27,0,0,0-3.42,1.91c-1.59-1.91-3-3.81-3.08-4.62-.2-1.78,4.56-10.55,5.58-11.81s1.78-3.47,3.38-2.6A3.6,3.6,0,0,1,613.27,411.18Z"/><path class="cls-13" d="M614,434.1c-1-.82-2.48-3.18-3.42-3.94a57.42,57.42,0,0,1-4.57-5,6.27,6.27,0,0,1,3.42-1.91c1.21,2.3,2.9,4.93,3.58,5.13,1.08.33,3.17-.45,3.51.17s-2.06,1.36-2.06,1.36,3.3,1.78,3.42,2.6S615.05,434.93,614,434.1Z"/><path class="cls-13" d="M616.93,392.71c2.62-.14,4.84.15,5,2.22s1,7.09-1.52,7.78-5.29-1.7-5.36-5.63S616.93,392.71,616.93,392.71Z"/><path class="cls-26" d="M614.9,398.57a5.14,5.14,0,0,0,1.78-3.4s5.53,1.13,6.26-3.2a8.8,8.8,0,0,1-3.81-.59c-2.13-.79-5.06-.71-5.09,1.47a2.6,2.6,0,0,0-1.69,2.66,5.7,5.7,0,0,0,2.39,4.65Z"/><path class="cls-13" d="M614.55,398.43v4.83a3.58,3.58,0,0,0,4.41,1.59,1.86,1.86,0,0,0,.82-1.26c.05-.77,0-3.85,0-3.85Z"/><path class="cls-13" d="M615.82,398.27s-.9-1.57-2.07-.88-.1,2.64,2.07,2.18Z"/><ellipse class="cls-3" cx="1145.42" cy="373.82" rx="13.4" ry="4.78"/><path class="cls-27" d="M1138.17,351s1.09,11.79.66,16.49a6.88,6.88,0,0,0,3.6-.55,28.6,28.6,0,0,1,.11-8.2c.87-3.84,1-6.52.29-8.21l-.35-12.22s2.09,11.17,2.79,13.79c.56,2.11,3.59,11.71,4.89,16.35.31,1.14.53,2,.58,2.34.23,1.8-1.39,9.19,1.75,9.19s3.26-7,2.27-9.31c-.89-2-1-1.22-1.43-3.09,0-.21-.09-.46-.14-.75-.53-2.85-.3-10.42-1.52-13.39s-1.74-3.08-1.92-4.42,2.59-16.76-.42-20c0,0-6.92,2.31-12.38-1.34C1137,327.67,1136.13,344,1138.17,351Z"/><path class="cls-13" d="M1132.76,373.36c0,.75,1.51,1.69,4.13,1s6.29-2.44,6.34-3.37a3.32,3.32,0,0,0-.52-1.8s-2.82,3.2-6.24,3.23a2,2,0,0,1-1.31-.41C1133.86,372.61,1132.73,373,1132.76,373.36Z"/><path class="cls-13" d="M1132.76,373.36c0,.75,1.51,1.69,4.13,1s6.29-2.44,6.34-3.37a3.32,3.32,0,0,0-.52-1.8s-2.82,3.2-6.24,3.23a2,2,0,0,1-1.31-.41C1133.86,372.61,1132.73,373,1132.76,373.36Z"/><path class="cls-13" d="M1135.16,372a2,2,0,0,0,1.31.41c3.42,0,6.24-3.23,6.24-3.23s-.14-.9-.28-2.22a6.88,6.88,0,0,1-3.6.55,7.09,7.09,0,0,1-.25,1.43C1138.07,370.4,1136.53,371.33,1135.16,372Z"/><path class="cls-28" d="M1132.76,373.36c0,.75,1.51,1.69,4.13,1s6.29-2.44,6.34-3.37a3.32,3.32,0,0,0-.52-1.8s-2.82,3.2-6.24,3.23a2,2,0,0,1-1.31-.41C1133.86,372.61,1132.73,373,1132.76,373.36Z"/><path class="cls-13" d="M1150.62,373.61c-.19,2.78-.32,6.38,1.87,6.38,3.14,0,3.26-7,2.27-9.31a8.7,8.7,0,0,0-.57-1.13,3.86,3.86,0,0,1-.86-2,4.35,4.35,0,0,1-3.17.87c.31,1.14.53,2,.58,2.34A19.46,19.46,0,0,1,1150.62,373.61Z"/><path class="cls-28" d="M1152.49,380c3.14,0,3.26-7,2.27-9.31a8.7,8.7,0,0,0-.57-1.13c.37,2.34.92,7.68-1.67,7.63,0,0-1.35.24-1.9-3.57C1150.43,376.39,1150.3,380,1152.49,380Z"/><path class="cls-29" d="M1127.91,326.15s.68.49,1,2.62l.08,0s6.57-2.54,7.36-4.09,4.51-10.54,5-11.68-.51-3.08-.51-3.08a1.45,1.45,0,0,0-2.1.35c-.88.92-4.06,11.2-4.85,12.09S1127.91,326.15,1127.91,326.15Z"/><path class="cls-13" d="M1124.39,330a8.58,8.58,0,0,0,4.49-1.22c-.29-2.13-1-2.62-1-2.62s-3.87-1-4.41-.67,1.11,1.52,1.11,1.52-2.92-.25-2.95,0S1122,329.83,1124.39,330Z"/><path class="cls-30" d="M1136.79,337.84s2.46-5.54,1.67-9.45c0,0,.48,1.31,4,1.27a42.08,42.08,0,0,1-.35-6.07c.21-1.33,1.27-6.21,3.44-8.54a20.72,20.72,0,0,0,3.25-5.46,9.34,9.34,0,0,0-1.51-.81,7.35,7.35,0,0,0-2.46-.51c-2.28-.1-4.5.65-4.92,1.26a21.32,21.32,0,0,0-2.6,9.54c0,4.44-1,11.87-1.71,12.75S1136.79,337.84,1136.79,337.84Z"/><path class="cls-31" d="M1142.46,329.66s1.8,7.65,3.78,9.41a7,7,0,0,0,4.5,1.67s1.52-6.38-.24-12.09-.37-7.87.85-8.79c0,0,2.32-4.13,1.13-6a13.38,13.38,0,0,0-3.68-4.29,20.72,20.72,0,0,1-3.25,5.46c-2.17,2.33-3.23,7.21-3.44,8.54A42.08,42.08,0,0,0,1142.46,329.66Z"/><path class="cls-31" d="M1136.79,337.84s2.69-5.23,1.9-9.14a5.41,5.41,0,0,1,.28-2.49,75.68,75.68,0,0,0,1.86-10.45c.35-2.64,2.75-5.93,4-7.49-2.28-.1-4.5.65-4.92,1.26a21.32,21.32,0,0,0-2.6,9.54c0,4.44-1,11.87-1.71,12.75S1136.79,337.84,1136.79,337.84Z"/><path class="cls-29" d="M1149.77,317.56c.9,2.14,3.83,6.33,3.58,7.5-.19.85-1.72,6.47-2.51,10a3.56,3.56,0,0,1,2.42.33.93.93,0,0,1,.09-.24c.29-.59,4.69-8.63,4.23-11s-3.19-7-4.11-8.81a3.16,3.16,0,0,0-2.29-1.63,1.44,1.44,0,0,0-1.59.77A3.72,3.72,0,0,0,1149.77,317.56Z"/><path class="cls-13" d="M1150.38,337.66c.08,1.26.2,2.89,1.71,3.06s2.1-.71,1.55-1.8a6.73,6.73,0,0,1-.38-3.57,3.56,3.56,0,0,0-2.42-.33A13.79,13.79,0,0,0,1150.38,337.66Z"/><path class="cls-13" d="M1141.17,299.92a8.57,8.57,0,0,0,.26,5.54c.87,2.38,1.25,3.32,1.25,3.32s6.38-.6,5.7-5.69S1141.17,299.92,1141.17,299.92Z"/><path class="cls-13" d="M1143.81,307.53a10.4,10.4,0,0,1,.82,3.23s3,1.27,3.8-1.41l-.17-4.29Z"/><path class="cls-32" d="M1142.2,300.46s-.52,1.24-1.37,1.35c0,0-1.17-4.31,4.2-5.35Z"/><path class="cls-33" d="M1142,299.55a2.35,2.35,0,0,0,.1,2,5.63,5.63,0,0,0,1.45,1.71c1.59,1.27,3.75,4.18,3.41,6.52,0,0,5.33-4.47,3.32-9.46s-5.22-4.05-6.47-3.42A5.4,5.4,0,0,0,1142,299.55Z"/><ellipse class="cls-3" cx="771.35" cy="494.12" rx="13.4" ry="4.78"/><path class="cls-34" d="M780.65,489.81s.46,2.69.18,3.08-3,1.1-4.33,0-4.14-4.26-3.62-5.09a2.38,2.38,0,0,1,2.37-.91C776.21,486.93,780.65,489.81,780.65,489.81Z"/><path class="cls-35" d="M770.51,458.8s1.44,9.74,2.93,15a18.3,18.3,0,0,0,.69,4.65,27.56,27.56,0,0,1,1.78,6.43c.34,2.42.69,4.88.69,4.88s.74,1.78,4.42.29c0,0-.51-7.23-.31-9.36s-.32-6.14-1.59-8.21c0,0-.83-14.4-.4-16.7Z"/><path class="cls-34" d="M771.84,493.82a13.67,13.67,0,0,1,.26,3,1.8,1.8,0,0,1-1.87,1.39c-1.29-.11-2.45-1-3.28-1.09s-6-1.42-5.85-2.27,8.17-2,8.17-2Z"/><path class="cls-36" d="M762.67,458.43a146.56,146.56,0,0,0,1.85,16.91,32.39,32.39,0,0,0,.62,5.07c.42,1.4,2.49,13.3,2.49,13.3s.72,1.5,4.71.36c0,0,.69-12.46.51-13.66a7.93,7.93,0,0,0-1.58-3.15s.6-6.11.91-7.61.88-9.18.26-11.55Z"/><path class="cls-13" d="M766.89,422.08s1-2.15,2-1.25-1.21,2.49-2,2.69Z"/><path class="cls-13" d="M771.43,416c-1.26-.3-3.95-.52-4.92.94a10.34,10.34,0,0,0-.12,8.72,7.4,7.4,0,0,0,4.1-1.11C772.87,423.19,773.13,416.36,771.43,416Z"/><path class="cls-13" d="M767.19,424.7a7.69,7.69,0,0,1,1.14,4.53,10.63,10.63,0,0,1,4.8-1.55,9.33,9.33,0,0,1-.09-4.36A11.94,11.94,0,0,0,767.19,424.7Z"/><path class="cls-33" d="M767.46,422.07a2.2,2.2,0,0,1,0-2.25c.58-1.11.62-2.07.21-2.27s-1.78,0-1.71-.77,5-3.65,8.49,0c0,0,3,1.74-1.6,8.43C772.85,425.21,769.17,426.21,767.46,422.07Z"/><path class="cls-37" d="M767.47,430.06v-1.4a12.12,12.12,0,0,1,6.16-2l.45.76S772.66,428.7,767.47,430.06Z"/><path class="cls-13" d="M757.39,434.75s-.76-3.43-1.48-3.31-.33,1.65-.33,1.65-2.87-1.19-3.15-.57-.57,2.57-.08,3.2,2.22,1.24,3.94,1.39Z"/><path class="cls-37" d="M758.43,435.11l-1-.36s-.84.48-1.1,2.36l1,.52A4.86,4.86,0,0,1,758.43,435.11Z"/><path class="cls-38" d="M777.58,427.16s3.54,1.56,2.81,7.8c-.53,4.59-11.6,6.67-14.18,6.46s-9.16-3.79-9.16-3.79,0-1.95,1.26-2.64c0,0,6.63,2,8.58,1.79s7.69-4.73,8.51-6.37S776.85,427.35,777.58,427.16Z"/><path class="cls-38" d="M771.27,428.21a21.18,21.18,0,0,0-7.49,4.74c-2,2.18,1.19,12.75.74,15a94.45,94.45,0,0,0-2.38,11.59s4,3.23,11.29.87c0,0,2.42-.46,6.25-3.74,0,0-1.46-7.16-.76-11.47s3.56-14.65-1.29-18l-.1,0A13.56,13.56,0,0,0,771.27,428.21Z"/><path class="cls-13" d="M764.05,458.78a9.44,9.44,0,0,1,1.08,2.94,2,2,0,0,1-2.93,1.73c-1.54-.81-1.58-2.95-.78-5.35Z"/><path class="cls-37" d="M761.7,456.75l-.28,1.35a3.3,3.3,0,0,0,2.63.68l.47-1.15A7.94,7.94,0,0,1,761.7,456.75Z"/><path class="cls-39" d="M764.53,432.77c2.51.15,3.29,2.31,3.5,4.21s.85,8.06.62,9.68-4.12,11.26-4.12,11.26a3.69,3.69,0,0,1-3-1,60.69,60.69,0,0,1,2.17-9.36s-.65-7.59-.92-10.83S763.5,432.71,764.53,432.77Z"/><ellipse class="cls-3" cx="645.74" cy="342.34" rx="13.4" ry="4.78"/><path class="cls-40" d="M641.27,337.84a8.49,8.49,0,0,0-.15,3,5.53,5.53,0,0,0,2.22,2.1c.68.29,1.94,4,5.79,2.79s-3.33-5.78-3.49-8.31A7.58,7.58,0,0,1,641.27,337.84Z"/><path class="cls-40" d="M648.12,332.92a13.53,13.53,0,0,0,.66,3.49c.45.76,2.68,2.36,2.19,2.91s-3.59.6-5.15-1.47-2.72-3.25-2.68-3.78a11,11,0,0,1,1.51-2.43A6.87,6.87,0,0,0,648.12,332.92Z"/><path class="cls-41" d="M646,302.61s1.39,10.82,3.8,16.25a10.85,10.85,0,0,0-2.44,3.66c-.5,1.75-1,5.58-3,9.21a4.4,4.4,0,0,0,4,1.44s6.27-12.95,6.77-15-1.36-17.31-1.36-17.31Z"/><path class="cls-42" d="M640.13,303.3a31.42,31.42,0,0,0-.92,7.74,84,84,0,0,0,1.7,11.4,20.31,20.31,0,0,0-.85,5.07c0,2.29.72,3.77,1,6.24a15.06,15.06,0,0,1,0,4.22,4.52,4.52,0,0,0,4.67-.22s.36-12.8.72-15.53,2.87-16,2.87-19.84A23.35,23.35,0,0,1,640.13,303.3Z"/><path class="cls-43" d="M640.32,301.85l-.19,1.45s8.62,1.51,13.6-2.41l-.07-1.59S650,302.58,640.32,301.85Z"/><path class="cls-13" d="M661.94,295.36s3.76-.19,3.87.31-1.43,1.07-1.43,1.07,2.7,2,2.54,2.52-1.41,1.86-2.21,1.74-4.17-2.22-4.65-3.7Z"/><path class="cls-44" d="M661.36,294.74l.58.62a2.92,2.92,0,0,1-1.88,1.94l-.74-.53A10,10,0,0,0,661.36,294.74Z"/><path class="cls-13" d="M637.34,304.78a3.84,3.84,0,0,1,1,2.1,1.77,1.77,0,0,1-.48,1.25s-.31,2.26-1.34,2.09a3.18,3.18,0,0,1-2.38-2.65,8.34,8.34,0,0,1,.41-2.79Z"/><path class="cls-44" d="M637.42,303.84l-.08.94a4.08,4.08,0,0,1-2.83,0l-.08-.94A8.7,8.7,0,0,0,637.42,303.84Z"/><polygon class="cls-44" points="646.48 278.32 647.26 279.28 647.17 276.59 649.41 278.13 650.76 282.64 647.46 284.23 643.2 282.02 642.42 277.37 646.48 278.32"/><path class="cls-45" d="M651.77,276.35c1.28.42,3.32,5.93,4.43,11.81l5.33,6.6s-.22,1.15-2.18,2.18c0,0-6.09-4.82-6.81-6.82a95.49,95.49,0,0,1-2.73-10.84C649.51,277.16,650.58,276,651.77,276.35Z"/><path class="cls-46" d="M643,276.82s3.35,5.11,5.22,5.31-1.6-6.15-1.6-6.15,3.87-.27,4.73.1,2.49,2.12,2.6,7c.09,4.53-.12,13.23.07,15.75a.92.92,0,0,1-.35.78c-1.24.91-5.38,3.4-13.23,2.66a.43.43,0,0,1-.38-.47c.14-1.36.58-5.54.53-6.35-.06-1-2-7.2-2.39-9.76s-.49-4.61.29-5.59S643,276.82,643,276.82Z"/><path class="cls-45" d="M639.69,281c1.54,1.08,1.38,4.2.84,6.41a39.34,39.34,0,0,1-2.63,6.26,96.37,96.37,0,0,1-.38,10.29,4.11,4.11,0,0,1-3.17,0s-.68-7.89-.3-10.79a68.24,68.24,0,0,1,2.25-8.7C636.83,282.5,637.9,279.71,639.69,281Z"/><path class="cls-45" d="M648.94,301.75a.4.4,0,0,0-.21.33c0,.34,0,1,.18,1a7.58,7.58,0,0,0,2.13-.66c.3-.24.2-1.17.05-1.31A6.23,6.23,0,0,0,648.94,301.75Z"/><polygon class="cls-47" points="648.5 277.83 648.55 279.11 646.35 277.66 647.45 277.07 648.5 277.83"/><polygon class="cls-44" points="646.79 276.59 648.5 277.83 648.11 279.11 646.4 277.36 646.79 276.59"/><path class="cls-13" d="M647.21,265.61c1.29,0,3.54.33,3.8,1.41s-.09,7.3-1.9,8.68c0,0-4.2-.58-4.69-3.3S644.49,265.64,647.21,265.61Z"/><path class="cls-13" d="M643.41,276.22l.19-2.31.14-3.52,6.07,2a11.79,11.79,0,0,0-2.55,6.9Z"/><path class="cls-48" d="M644.88,270.51a17.92,17.92,0,0,0,.19,2.56,3,3,0,0,0,.76,1.08s.17-.46.44-.57c0,0-.71-.56-.69-1.11s.47-3,.47-3a1.5,1.5,0,0,1-.63-1.59c.25-1,2-.84,3-.62s3.1.07,3.82-1.39a17.87,17.87,0,0,0-5.28-1.39c-2.07,0-3.49.22-3.8,2.17a2.57,2.57,0,0,0-1.13,2.67,8.2,8.2,0,0,0,1.53,4.6Z"/><path class="cls-13" d="M644.88,270.61s-.12-1.36-1.15-1.12-.44,2.21.8,3Z"/><polygon class="cls-44" points="646.48 278.32 647.26 279.28 645.8 278.88 646.48 278.32"/><polygon class="cls-45" points="643.2 275.7 646.48 278.32 645.04 280.34 642.42 276.86 643.2 275.7"/><ellipse class="cls-3" cx="746.07" cy="295.35" rx="13.4" ry="4.78"/><path class="cls-13" d="M747,275.54c-.11,3.08-2.66,14-2.6,14.69a.22.22,0,0,0,0,.08.13.13,0,0,0,0,.06h0a1,1,0,0,0,0,.17.13.13,0,0,1,0,.06c.16.95.6,2.94.65,3.8s.23,4.74-1.84,4.56-2.15-2.47-2.41-3.84.58-5.09.58-5.09c.35-2.39.32-7,.44-9a46.08,46.08,0,0,1,1.05-5.82l-.5-4.31,4.58-.64S747.14,272.45,747,275.54Z"/><path class="cls-36" d="M743.29,299c-2.06-.17-2.15-2.47-2.41-3.84s.58-5.09.58-5.09-.55,7.33,1.72,6.85c2-.42,1.47-5.05,1.3-6.28.16.95.6,2.94.65,3.8S745.36,299.14,743.29,299Z"/><path class="cls-13" d="M755.21,295.73c-2.4.88-4.77-1.67-4.92-2.44a5.08,5.08,0,0,0-1.33-1.85v2.92h-.53s-.24-2.92-.47-4a4.66,4.66,0,0,1,.23-2.14c.08-.25.15-.41.15-.41.37-2.44-.45-7.62-.42-8.91s.42-5.25.42-5.25c-.41-1.59-.84-3.35-.84-3.35,1,.38,5-.57,5-.57s-.08,2.92-.26,4.51-1,13-.59,15c.2,1,1.79,2.5,2.94,3.81S756.38,295.3,755.21,295.73Z"/><path class="cls-36" d="M755.21,295.73c-2.4.88-4.77-1.67-4.92-2.44a5.08,5.08,0,0,0-1.33-1.85v2.92h-.53s-.24-2.92-.47-4a4.66,4.66,0,0,1,.23-2.14,1.25,1.25,0,0,1,.8.7c.33.8,1.87,4.68,3.26,4.8a2.6,2.6,0,0,0,2.32-.7C755.66,294.21,756.38,295.3,755.21,295.73Z"/><path class="cls-36" d="M740.45,255.37s-1.52,4.18,1.95,15.95c0,0,3.53,1.2,10.25-1.2,0,0,1.63-10.72,1.22-14.08l-3.2-1.83Z"/><path class="cls-39" d="M752.93,241.28s1.84,4.33,5.05,4.83a5.33,5.33,0,0,0-1.53,2s-2.47.36-5.42-2.82Z"/><polygon class="cls-49" points="753.4 251.05 763.32 243.27 763.66 240.15 752.65 248.91 753.4 251.05"/><path class="cls-38" d="M745.29,231.51c1.56-.12,5.09-.26,5.74.17s3.12,4.92,3.44,6.72-1.17,5.41-1.88,6,2.09,11.21,1.42,12.95a3.7,3.7,0,0,1-3.93-2.07s-.23,2.42-2,2.68a16.19,16.19,0,0,1-8.16-.61,29.2,29.2,0,0,1,.92-7c.92-3-2.32-13-2.41-14.82S743.76,231.62,745.29,231.51Z"/><path class="cls-39" d="M739.69,234.9c1.43.43,1.72,2.28,1.76,3.5s-.11,8.57-.11,8.57,5.08,3.37,6.16,4.26a5.63,5.63,0,0,0-.26,2.3s-8-2.15-9.2-4.86-.56-10-.49-11.39S738.21,234.45,739.69,234.9Z"/><path class="cls-13" d="M747.24,253.53s2.4.21,3-.41c0,0,.78,1.13,1.35,1.09s1.9-1.06,1.85-1.53-1.24-2.48-2-2.6-4,1.15-4,1.15A3.07,3.07,0,0,0,747.24,253.53Z"/><path class="cls-13" d="M746.88,219.59c1.6.29,3.66.94,4.21,2.69s.78,5.51-1.27,7.49c0,0-5.63-.88-5.89-4.57S745.79,219.4,746.88,219.59Z"/><path class="cls-13" d="M743.36,231.94s.94-.51,1-1.06a37.46,37.46,0,0,1,.23-5.09s2.25,2.67,4.44,2.67a5.21,5.21,0,0,0-1.38,3.21l.45,0a6.07,6.07,0,0,1,2.2,5.09C750.27,240.33,744.59,235,743.36,231.94Z"/><path class="cls-50" d="M746.42,221.3s1.62,2.27,3.22,2.17,1.81,2.22,1.81,2.22,1-3.1,0-4.81a6,6,0,0,0-5.82-2.55c-2.39.27-6.35,6.64-1.23,12,0,0,.17-3.29,1-4S746.77,223.09,746.42,221.3Z"/><path class="cls-1" d="M751.56,241.06c-.64,3.13-2.26,3.95-2.26,3.95a25.56,25.56,0,0,0-2.58-5.42l-.82-3.35s.54,0,1.26.15a4.84,4.84,0,0,0,2.89-.53,5.24,5.24,0,0,0,.61-.34A35.09,35.09,0,0,1,751.56,241.06Z"/><path class="cls-39" d="M749.3,245a25.56,25.56,0,0,0-2.58-5.42,8.2,8.2,0,0,0-2-2.23l1-1.57-2.75.23-.17-4a6,6,0,0,1,1.26-.6s1.58,2.2,3.24,5.13A14,14,0,0,1,749.3,245Z"/><path class="cls-39" d="M751.56,241.06c-.64,3.13-2.26,3.95-2.26,3.95,1.62-1.8,1.46-6.39.75-9.15a8,8,0,0,0-.3-1,6.56,6.56,0,0,0-2.06-3.22l0-.47c1.79.43,3.3,2.63,3.3,2.63l-.78.88,1.37.94A16.85,16.85,0,0,1,751.56,241.06Z"/><path class="cls-13" d="M758,247.85a4.75,4.75,0,0,1,0-2.3c.36-.65,2.12-1.75,2.66-1.54s.64,1.88.43,2.26S758.76,248.29,758,247.85Z"/><ellipse class="cls-3" cx="1102.44" cy="509.67" rx="13.4" ry="4.78"/><path class="cls-51" d="M1111.09,505.24s.54,2.93.13,3.19-2.88.7-3.9-.12-4.78-3.36-4.27-4.2a1.65,1.65,0,0,1,1.91-.8C1105.6,503.45,1111.09,505.24,1111.09,505.24Z"/><path class="cls-51" d="M1102.79,509.29s.88,2.68,0,3.27-9.56-2.48-9.24-4.72c0,0,.16-.68,1.46-.51a27.26,27.26,0,0,0,5.44.44Z"/><path class="cls-52" d="M1108.06,470a99.75,99.75,0,0,1,.68,15.09,23.19,23.19,0,0,1,1.85,5.5c.25,2.19.5,14.63.5,14.63s-2.44,1.43-3.82-.51c0,0-2.9-15.59-3.37-17.82s-3.07-15-3.07-15Z"/><path class="cls-53" d="M1095.05,466.32s-.52,13.33,2,22.93c0,0,1.49,17,1.86,18.69,0,0,.6,2.46,4.1,1.64,0,0,1.19-16.53-.67-19.36,0,0,1.64-19.73.44-23.53C1102.79,466.69,1097.88,467.51,1095.05,466.32Z"/><path class="cls-54" d="M1090.13,450s-.27-2.7-.85-2.79-.43,2-.43,2-3.27-1.73-3.67-1.16a4.66,4.66,0,0,0,.27,3.4c.47.65,2.78.95,4.68,1Z"/><path class="cls-55" d="M1093.93,450l-.19,3-3-.5a6,6,0,0,1,.13-2.54Z"/><path class="cls-1" d="M1090.73,452.51l-.6-.1a5.49,5.49,0,0,1,0-2.44h.73A6,6,0,0,0,1090.73,452.51Z"/><path class="cls-13" d="M1103.36,431.54a4.63,4.63,0,0,0-4.69-.94,6.43,6.43,0,0,0-2.69,3.66c-.41,1.48-.9,4.83-.21,5.31a5.55,5.55,0,0,0,5.28-.65C1102.81,437.5,1104.19,432.43,1103.36,431.54Z"/><path class="cls-13" d="M1097.66,439.22l.56,4a29.29,29.29,0,0,1,4.77-1.1l-.27-2.72A10.69,10.69,0,0,0,1097.66,439.22Z"/><path class="cls-1" d="M1096.65,444.34v-.92a12.42,12.42,0,0,1,4.37-1.89,9,9,0,0,1,2.91-.22l.29,1.11A32.64,32.64,0,0,0,1096.65,444.34Z"/><path class="cls-55" d="M1101.14,442.63c-2.05.53-6.53,1.89-8.05,5.15s1.57,8.4,1.7,13.52-1.1,7.55-.78,13a5.76,5.76,0,0,0,2.19,1.2l1.23-6.77.63,6.56s6.93,0,10.33-4.75a62.26,62.26,0,0,1-1.29-9.49c0-3.27,4.08-15.45.21-18.88C1107.31,442.16,1105.64,441.48,1101.14,442.63Z"/><path class="cls-56" d="M1098.14,435.84a2.07,2.07,0,0,1,.2-1.76,1.45,1.45,0,0,0-.31-2c-.67-.52-.86-2.05.09-2.51a5.49,5.49,0,0,1,4.39-.11,6.73,6.73,0,0,1,3.11,4.24c.32,1.82-1.24,5.72-2.88,6.4,0,0-2.64,0-3.54-1.8a8.46,8.46,0,0,0-.42-1.88A4,4,0,0,0,1098.14,435.84Z"/><path class="cls-13" d="M1097.81,435.8s.81-1.63,1.78-.88-.5,2.84-1.78,2.56Z"/><path class="cls-13" d="M1088.35,449.17s1-5.46.59-5.63-1.77,2.25-1.77,2.25a10.13,10.13,0,0,1-.46-2.7c.08-.86.78-2,.36-2.29s-1.1,1.05-1.56,2.57a10.33,10.33,0,0,0,.55,6.73Z"/><path class="cls-1" d="M1088.69,449.82l-.34-.65a3.67,3.67,0,0,0-2.29.93l.11.68Z"/><path class="cls-57" d="M1095.76,447.26c1.88.45,1.81,2.39,1.4,4.71s-1.91,12.43-5.12,10.86-5.87-12.05-5.87-12.05a3.57,3.57,0,0,1,2.52-1l2.56,5.67s1.14-4.7,1.42-6A2.53,2.53,0,0,1,1095.76,447.26Z"/><ellipse class="cls-3" cx="985.33" cy="313.32" rx="13.4" ry="4.78"/><path class="cls-58" d="M997.39,274.62h-.08l-3.65-.23-1.18-.07.34-11.24,4,.24,1.89.11S999.32,274.64,997.39,274.62Z"/><path class="cls-59" d="M997.31,274.61l-3.65-.23-1.18-.07-3.24-.2V262.88l3.58.19,4,.21v0c0,.06,0,.22,0,.45C996.58,265.83,996,273.86,997.31,274.61Z"/><path class="cls-60" d="M997.41,274.61h-.1c-1.35-.75-.73-8.78-.55-10.85l1.6.05S998.77,274.22,997.41,274.61Z"/><path class="cls-61" d="M985.79,305.33a9.13,9.13,0,0,0-.39,3c.21.85,2.35.81,3.47.69a7.24,7.24,0,0,0,5.72.89s.74-.71.14-1.14-5.07-2.23-5.49-2.89Z"/><path class="cls-38" d="M991.88,268.87s-.44,15.65-.52,18.81-2.12,18.18-2.12,18.18a5.37,5.37,0,0,1-3.45-.53,65.48,65.48,0,0,0-.49-6.81c-.34-1.51-.14-7.49.39-8.8,0,0-2-12.5-1.65-20.64Z"/><path class="cls-61" d="M978,309.19s-2.18,7.47,2.63,7.47,1.47-4.08,1.36-5-.23-2.44-.23-2.44Z"/><path class="cls-62" d="M979.12,268.44a32.62,32.62,0,0,0-1.23,5.74c-.32,2.93.27,16.44.27,16.44s-1,4.91-1.23,7.68,1.1,10.89,1.1,10.89a4.43,4.43,0,0,0,3.76,0s2-15.42,1.71-17.66c0,0,4.25-14.91,4.1-22Z"/><path class="cls-1" d="M984.36,244.75c-.91.13-5.77,1.76-7.6,4.66s2.87,10,2.9,12.43a36.31,36.31,0,0,1-.54,6.6s5.09,2.18,12.76.43c0,0,1.58-17.24-1.54-23.4A9.89,9.89,0,0,0,984.36,244.75Z"/><path class="cls-38" d="M986.84,244.63a51.47,51.47,0,0,1,3.23,10.28c.69,4.43.77,20.84.77,20.84a1.93,1.93,0,0,0,1.21-.43s1.71-26.8-1.71-29.85A6.9,6.9,0,0,0,986.84,244.63Z"/><path class="cls-13" d="M984.77,234.94c2.2.05,4.1.41,4.71,1.3s.69,7.64-.68,7.85-4.71,1.07-5.73-5.3C983.07,238.79,982.75,234.9,984.77,234.94Z"/><path class="cls-13" d="M982.22,245.2l.27-5.61,5.68,1.49-1.47,5.73S983.23,248.12,982.22,245.2Z"/><path class="cls-38" d="M982.22,245.2a20.09,20.09,0,0,1,3.71,8.83,89.57,89.57,0,0,1-.35,23s-6.37.64-8.82-1.87c0,0,.37-5.19,2.14-7.8,1-1.52-2.16-13-2.54-16.71S982.22,245.2,982.22,245.2Z"/><path class="cls-63" d="M983.47,240.17a1.37,1.37,0,0,0,.57-.74c.16-.52.13-2.19.73-2.44s3.55.21,4.35-.27,1.66-2.6,0-3-1.67.24-3,0-3.75-.11-4.5,1-2.24,4.16.73,8.07A9.14,9.14,0,0,0,983.47,240.17Z"/><path class="cls-13" d="M983.86,240.16s-.82-1.56-1.62-.57,1,2.5,1.87,2.33Z"/><path class="cls-13" d="M988.74,265.73s3.74-.59,4.06-.16-1,1-1,1a12.92,12.92,0,0,0,2,2c.45.17,1.48.22,1.37.64s-4.41.94-5.11.64a21.35,21.35,0,0,1-2.4-1.49A3.76,3.76,0,0,1,988.74,265.73Z"/><path class="cls-39" d="M977.66,249.52a3.5,3.5,0,0,1,2.92,3.32c.1,1.54,1.11,8.3,1.11,8.3l7,4.59a5,5,0,0,0-1.14,2.58s-8.1-2.67-9.11-4-2.54-8.63-2.67-10.47S975.9,249.34,977.66,249.52Z"/></g></g></svg>