<svg xmlns="http://www.w3.org/2000/svg" viewBox="0 0 180 56"><defs><style>.cls-1,.cls-2{fill:#4586c6;}.cls-2{font-size:16.34px;font-family:Playball-Regular, Playball;}.cls-3{letter-spacing:0.04em;}.cls-4{letter-spacing:0.09em;}.cls-5{letter-spacing:-0.05em;}.cls-6{letter-spacing:0.01em;}.cls-7{letter-spacing:0.02em;}.cls-10,.cls-11,.cls-8,.cls-9{fill:#010101;}.cls-10,.cls-11,.cls-9{opacity:0.8;}.cls-10{letter-spacing:0.17em;}.cls-11{letter-spacing:0.12em;}</style></defs><g id="Calque_2" data-name="Calque 2"><g id="Calque_1-2" data-name="Calque 1"><path class="cls-1" d="M161,28.91c-20.68-4.27-24.76-4.77-31.18-9.36s-16-14.21-38.9-17.79C65-2.3,45.47,1.74,36.72,3.28a12.78,12.78,0,0,0-6.34,3.07C26.12,10.14,18.24,17.6,16.26,22.49l113.56,7.88L76.29,23.44V9.79a2,2,0,0,0-1.74-2h0a2,2,0,0,0-2.28,1.77L70.74,22.72,27.82,17.17s12.79-14,47.33-11.56S114,15.22,127.06,24c3,2,4.41,2.81,13.76,4.83s36.08,4.1,38.9,19.4C179.72,48.2,183.8,33.61,161,28.91Z"/><path class="cls-1" d="M110.37,17.71S107.8,23.88,110,25s7.53,1.6,9.91,1.29,2.75-1.41,2.75-1.41L115,18.81A8.33,8.33,0,0,0,110.37,17.71Z"/><polygon class="cls-1" points="130.38 32.58 3.23 32.58 0 28.67 130.38 32.58"/><text class="cls-2" transform="translate(21 51.1)"><tspan class="cls-3">N</tspan><tspan class="cls-4" x="11.11" y="0">O</tspan><tspan x="25.05" y="0">L</tspan><tspan class="cls-5" x="34.36" y="0">E</tspan><tspan class="cls-6" x="42.86" y="0">G</tspan><tspan class="cls-7" x="55.12" y="0">G</tspan><tspan x="67.53" y="0">IO</tspan><tspan class="cls-8" x="84.58" y="0"> </tspan><tspan class="cls-9" x="89.48" y="0">A</tspan><tspan class="cls-10" x="101.74" y="0">U</tspan><tspan class="cls-11" x="116.11" y="0">T</tspan><tspan class="cls-9" x="124.61" y="0">O</tspan></text></g></g></svg>