<svg xmlns="http://www.w3.org/2000/svg" viewBox="0 0 180 9.07"><defs><style>.cls-1{fill:#dfb85f;}</style></defs><g id="Calque_2" data-name="Calque 2"><g id="Calque_1-2" data-name="Calque 1"><path class="cls-1" d="M91.51,4.53A1.51,1.51,0,1,1,90,3,1.51,1.51,0,0,1,91.51,4.53Z"/><path class="cls-1" d="M173.41,4.53A4.53,4.53,0,0,0,177.94,0a4.52,4.52,0,0,0,1.54,3.4,1.49,1.49,0,0,1,0,2.26,4.54,4.54,0,0,0-1.54,3.41A4.53,4.53,0,0,0,173.41,4.53Z"/><path class="cls-1" d="M171.35,4.53A1.51,1.51,0,1,0,172.86,3,1.52,1.52,0,0,0,171.35,4.53Z"/><rect class="cls-1" x="89.04" y="4.21" width="83.65" height="0.64"/><rect class="cls-1" x="8.65" y="4.21" width="83.65" height="0.64"/><path class="cls-1" d="M2.06,9.07A4.54,4.54,0,0,0,.52,5.66a1.49,1.49,0,0,1,0-2.26A4.52,4.52,0,0,0,2.06,0,4.53,4.53,0,0,0,6.59,4.53,4.53,4.53,0,0,0,2.06,9.07Z"/><path class="cls-1" d="M8.65,4.53A1.51,1.51,0,1,1,7.14,3,1.52,1.52,0,0,1,8.65,4.53Z"/></g></g></svg>